<mxfile host="app.diagrams.net" agent="Mozilla/5.0 (Windows NT 10.0; Win64; x64) AppleWebKit/537.36 (KHTML, like Gecko) Chrome/131.0.0.0 Safari/537.36" version="25.0.3">
  <diagram id="kgpKYQtTHZ0yAKxKKP6v" name="Page-1">
    <mxGraphModel dx="2088" dy="1795" grid="1" gridSize="10" guides="1" tooltips="1" connect="1" arrows="1" fold="1" page="1" pageScale="1" pageWidth="850" pageHeight="1100" math="0" shadow="0">
      <root>
        <mxCell id="0" />
        <mxCell id="1" parent="0" />
        <mxCell id="3nuBFxr9cyL0pnOWT2aG-1" value="Full runs: Mode: TF activity assessment;Â Algos TF: CMap, CBDD CR, CBDD network, enrichment" style="shape=table;childLayout=tableLayout;startSize=20;collapsible=0;recursiveResize=0;expand=0;fillColor=none;fontStyle=1" parent="1" vertex="1">
          <mxGeometry x="100" y="60" width="700" height="500" as="geometry" />
        </mxCell>
        <mxCell id="3nuBFxr9cyL0pnOWT2aG-3" value="Query" style="shape=tableRow;horizontal=0;swimlaneHead=0;swimlaneBody=0;top=0;left=0;bottom=0;right=0;fillColor=none;points=[[0,0.5],[1,0.5]];portConstraint=eastwest;startSize=30;collapsible=0;recursiveResize=0;expand=0;fontStyle=1;" parent="3nuBFxr9cyL0pnOWT2aG-1" vertex="1">
          <mxGeometry y="20" width="700" height="104" as="geometry" />
        </mxCell>
        <mxCell id="3nuBFxr9cyL0pnOWT2aG-4" value="TF" style="swimlane;swimlaneHead=0;swimlaneBody=0;connectable=0;fillColor=none;startSize=40;collapsible=0;recursiveResize=0;expand=0;fontStyle=1;" parent="3nuBFxr9cyL0pnOWT2aG-3" vertex="1">
          <mxGeometry x="30" width="138" height="104" as="geometry">
            <mxRectangle width="138" height="104" as="alternateBounds" />
          </mxGeometry>
        </mxCell>
        <mxCell id="3nuBFxr9cyL0pnOWT2aG-7" value="PertOrg" style="rounded=0;whiteSpace=wrap;html=1;" parent="3nuBFxr9cyL0pnOWT2aG-4" vertex="1">
          <mxGeometry x="20" y="50" width="90" height="40" as="geometry" />
        </mxCell>
        <mxCell id="3nuBFxr9cyL0pnOWT2aG-8" value="TF" style="swimlane;swimlaneHead=0;swimlaneBody=0;connectable=0;fillColor=none;startSize=40;collapsible=0;recursiveResize=0;expand=0;fontStyle=1;" parent="3nuBFxr9cyL0pnOWT2aG-3" vertex="1">
          <mxGeometry x="168" width="138" height="104" as="geometry">
            <mxRectangle width="138" height="104" as="alternateBounds" />
          </mxGeometry>
        </mxCell>
        <mxCell id="GCNe0r2AlvjnZA9oPG5_-9" value="LINCS shRNA" style="rounded=0;whiteSpace=wrap;html=1;" vertex="1" parent="3nuBFxr9cyL0pnOWT2aG-8">
          <mxGeometry x="20" y="50" width="90" height="40" as="geometry" />
        </mxCell>
        <mxCell id="3nuBFxr9cyL0pnOWT2aG-11" value="" style="swimlane;swimlaneHead=0;swimlaneBody=0;connectable=0;fillColor=none;startSize=40;collapsible=0;recursiveResize=0;expand=0;fontStyle=1;" parent="3nuBFxr9cyL0pnOWT2aG-3" vertex="1">
          <mxGeometry x="306" width="394" height="104" as="geometry">
            <mxRectangle width="394" height="104" as="alternateBounds" />
          </mxGeometry>
        </mxCell>
        <mxCell id="GCNe0r2AlvjnZA9oPG5_-19" value="TF" style="swimlane;swimlaneHead=0;swimlaneBody=0;connectable=0;fillColor=none;startSize=40;collapsible=0;recursiveResize=0;expand=0;fontStyle=1;" vertex="1" parent="3nuBFxr9cyL0pnOWT2aG-11">
          <mxGeometry width="130" height="104" as="geometry">
            <mxRectangle width="130" height="104" as="alternateBounds" />
          </mxGeometry>
        </mxCell>
        <mxCell id="GCNe0r2AlvjnZA9oPG5_-20" value="LINCS OE" style="rounded=0;whiteSpace=wrap;html=1;" vertex="1" parent="GCNe0r2AlvjnZA9oPG5_-19">
          <mxGeometry x="20" y="50" width="90" height="40" as="geometry" />
        </mxCell>
        <mxCell id="GCNe0r2AlvjnZA9oPG5_-41" value="TF" style="swimlane;swimlaneHead=0;swimlaneBody=0;connectable=0;fillColor=none;startSize=40;collapsible=0;recursiveResize=0;expand=0;fontStyle=1;" vertex="1" parent="3nuBFxr9cyL0pnOWT2aG-11">
          <mxGeometry x="130" width="130" height="104" as="geometry">
            <mxRectangle width="130" height="104" as="alternateBounds" />
          </mxGeometry>
        </mxCell>
        <mxCell id="GCNe0r2AlvjnZA9oPG5_-42" value="LINCS CRISPR" style="rounded=0;whiteSpace=wrap;html=1;" vertex="1" parent="GCNe0r2AlvjnZA9oPG5_-41">
          <mxGeometry x="20" y="50" width="90" height="40" as="geometry" />
        </mxCell>
        <mxCell id="GCNe0r2AlvjnZA9oPG5_-43" value="TF" style="swimlane;swimlaneHead=0;swimlaneBody=0;connectable=0;fillColor=none;startSize=40;collapsible=0;recursiveResize=0;expand=0;fontStyle=1;" vertex="1" parent="3nuBFxr9cyL0pnOWT2aG-11">
          <mxGeometry x="259" width="130" height="104" as="geometry">
            <mxRectangle width="130" height="104" as="alternateBounds" />
          </mxGeometry>
        </mxCell>
        <mxCell id="GCNe0r2AlvjnZA9oPG5_-44" value="GWPS" style="rounded=0;whiteSpace=wrap;html=1;" vertex="1" parent="GCNe0r2AlvjnZA9oPG5_-43">
          <mxGeometry x="20" y="50" width="90" height="40" as="geometry" />
        </mxCell>
        <mxCell id="GCNe0r2AlvjnZA9oPG5_-56" value="" style="endArrow=none;html=1;rounded=0;" edge="1" parent="GCNe0r2AlvjnZA9oPG5_-43">
          <mxGeometry width="50" height="50" relative="1" as="geometry">
            <mxPoint y="480.0010934787326" as="sourcePoint" />
            <mxPoint y="-0.710000000000008" as="targetPoint" />
          </mxGeometry>
        </mxCell>
        <mxCell id="3nuBFxr9cyL0pnOWT2aG-15" value="Reference" style="shape=tableRow;horizontal=0;swimlaneHead=0;swimlaneBody=0;top=0;left=0;bottom=0;right=0;fillColor=none;points=[[0,0.5],[1,0.5]];portConstraint=eastwest;startSize=30;collapsible=0;recursiveResize=0;expand=0;fontStyle=1;" parent="3nuBFxr9cyL0pnOWT2aG-1" vertex="1">
          <mxGeometry y="124" width="700" height="376" as="geometry" />
        </mxCell>
        <mxCell id="3nuBFxr9cyL0pnOWT2aG-16" value="" style="swimlane;swimlaneHead=0;swimlaneBody=0;connectable=0;fillColor=none;startSize=0;collapsible=0;recursiveResize=0;expand=0;fontStyle=1;" parent="3nuBFxr9cyL0pnOWT2aG-15" vertex="1">
          <mxGeometry x="30" width="138" height="376" as="geometry">
            <mxRectangle width="138" height="376" as="alternateBounds" />
          </mxGeometry>
        </mxCell>
        <mxCell id="3nuBFxr9cyL0pnOWT2aG-17" value="GWPS" style="rounded=0;whiteSpace=wrap;html=1;" parent="3nuBFxr9cyL0pnOWT2aG-16" vertex="1">
          <mxGeometry x="20" y="11" width="90" height="29" as="geometry" />
        </mxCell>
        <mxCell id="GCNe0r2AlvjnZA9oPG5_-1" value="LIINCS CRISPR" style="rounded=0;whiteSpace=wrap;html=1;" vertex="1" parent="3nuBFxr9cyL0pnOWT2aG-16">
          <mxGeometry x="20" y="51" width="90" height="29" as="geometry" />
        </mxCell>
        <mxCell id="GCNe0r2AlvjnZA9oPG5_-2" value="LINCS OE" style="rounded=0;whiteSpace=wrap;html=1;" vertex="1" parent="3nuBFxr9cyL0pnOWT2aG-16">
          <mxGeometry x="20" y="91" width="90" height="29" as="geometry" />
        </mxCell>
        <mxCell id="GCNe0r2AlvjnZA9oPG5_-3" value="LINCS shRNA" style="rounded=0;whiteSpace=wrap;html=1;" vertex="1" parent="3nuBFxr9cyL0pnOWT2aG-16">
          <mxGeometry x="20" y="131" width="90" height="29" as="geometry" />
        </mxCell>
        <mxCell id="GCNe0r2AlvjnZA9oPG5_-4" value="mb_linpaths" style="rounded=0;whiteSpace=wrap;html=1;" vertex="1" parent="3nuBFxr9cyL0pnOWT2aG-16">
          <mxGeometry x="20" y="171" width="90" height="29" as="geometry" />
        </mxCell>
        <mxCell id="GCNe0r2AlvjnZA9oPG5_-5" value="mb_network" style="rounded=0;whiteSpace=wrap;html=1;" vertex="1" parent="3nuBFxr9cyL0pnOWT2aG-16">
          <mxGeometry x="20" y="211" width="90" height="29" as="geometry" />
        </mxCell>
        <mxCell id="GCNe0r2AlvjnZA9oPG5_-6" value="mb_regulons" style="rounded=0;whiteSpace=wrap;html=1;" vertex="1" parent="3nuBFxr9cyL0pnOWT2aG-16">
          <mxGeometry x="20" y="251" width="90" height="29" as="geometry" />
        </mxCell>
        <mxCell id="GCNe0r2AlvjnZA9oPG5_-7" value="omni network" style="rounded=0;whiteSpace=wrap;html=1;" vertex="1" parent="3nuBFxr9cyL0pnOWT2aG-16">
          <mxGeometry x="20" y="290" width="90" height="29" as="geometry" />
        </mxCell>
        <mxCell id="GCNe0r2AlvjnZA9oPG5_-8" value="omni regulons" style="rounded=0;whiteSpace=wrap;html=1;" vertex="1" parent="3nuBFxr9cyL0pnOWT2aG-16">
          <mxGeometry x="20" y="330" width="90" height="29" as="geometry" />
        </mxCell>
        <mxCell id="3nuBFxr9cyL0pnOWT2aG-18" value="" style="swimlane;swimlaneHead=0;swimlaneBody=0;connectable=0;fillColor=none;startSize=0;collapsible=0;recursiveResize=0;expand=0;fontStyle=1;" parent="3nuBFxr9cyL0pnOWT2aG-15" vertex="1">
          <mxGeometry x="168" width="138" height="376" as="geometry">
            <mxRectangle width="138" height="376" as="alternateBounds" />
          </mxGeometry>
        </mxCell>
        <mxCell id="GCNe0r2AlvjnZA9oPG5_-10" value="GWPS" style="rounded=0;whiteSpace=wrap;html=1;" vertex="1" parent="3nuBFxr9cyL0pnOWT2aG-18">
          <mxGeometry x="20" y="11.5" width="90" height="29" as="geometry" />
        </mxCell>
        <mxCell id="GCNe0r2AlvjnZA9oPG5_-11" value="LIINCS CRISPR" style="rounded=0;whiteSpace=wrap;html=1;" vertex="1" parent="3nuBFxr9cyL0pnOWT2aG-18">
          <mxGeometry x="20" y="51.5" width="90" height="29" as="geometry" />
        </mxCell>
        <mxCell id="GCNe0r2AlvjnZA9oPG5_-12" value="LINCS OE" style="rounded=0;whiteSpace=wrap;html=1;" vertex="1" parent="3nuBFxr9cyL0pnOWT2aG-18">
          <mxGeometry x="20" y="91.5" width="90" height="29" as="geometry" />
        </mxCell>
        <mxCell id="GCNe0r2AlvjnZA9oPG5_-13" value="LINCS shRNA" style="rounded=0;whiteSpace=wrap;html=1;" vertex="1" parent="3nuBFxr9cyL0pnOWT2aG-18">
          <mxGeometry x="20" y="131.5" width="90" height="29" as="geometry" />
        </mxCell>
        <mxCell id="GCNe0r2AlvjnZA9oPG5_-14" value="mb_linpaths" style="rounded=0;whiteSpace=wrap;html=1;" vertex="1" parent="3nuBFxr9cyL0pnOWT2aG-18">
          <mxGeometry x="20" y="171.5" width="90" height="29" as="geometry" />
        </mxCell>
        <mxCell id="GCNe0r2AlvjnZA9oPG5_-15" value="mb_network" style="rounded=0;whiteSpace=wrap;html=1;" vertex="1" parent="3nuBFxr9cyL0pnOWT2aG-18">
          <mxGeometry x="20" y="211.5" width="90" height="29" as="geometry" />
        </mxCell>
        <mxCell id="GCNe0r2AlvjnZA9oPG5_-16" value="mb_regulons" style="rounded=0;whiteSpace=wrap;html=1;" vertex="1" parent="3nuBFxr9cyL0pnOWT2aG-18">
          <mxGeometry x="20" y="251.5" width="90" height="29" as="geometry" />
        </mxCell>
        <mxCell id="GCNe0r2AlvjnZA9oPG5_-17" value="omni network" style="rounded=0;whiteSpace=wrap;html=1;" vertex="1" parent="3nuBFxr9cyL0pnOWT2aG-18">
          <mxGeometry x="20" y="290.5" width="90" height="29" as="geometry" />
        </mxCell>
        <mxCell id="GCNe0r2AlvjnZA9oPG5_-18" value="omni regulons" style="rounded=0;whiteSpace=wrap;html=1;" vertex="1" parent="3nuBFxr9cyL0pnOWT2aG-18">
          <mxGeometry x="20" y="330.5" width="90" height="29" as="geometry" />
        </mxCell>
        <mxCell id="3nuBFxr9cyL0pnOWT2aG-23" value="" style="swimlane;swimlaneHead=0;swimlaneBody=0;connectable=0;fillColor=none;startSize=0;collapsible=0;recursiveResize=0;expand=0;fontStyle=1;" parent="3nuBFxr9cyL0pnOWT2aG-15" vertex="1">
          <mxGeometry x="306" width="394" height="376" as="geometry">
            <mxRectangle width="394" height="376" as="alternateBounds" />
          </mxGeometry>
        </mxCell>
        <mxCell id="GCNe0r2AlvjnZA9oPG5_-21" value="" style="swimlane;swimlaneHead=0;swimlaneBody=0;connectable=0;fillColor=none;startSize=0;collapsible=0;recursiveResize=0;expand=0;fontStyle=1;" vertex="1" parent="3nuBFxr9cyL0pnOWT2aG-23">
          <mxGeometry width="130" height="376" as="geometry">
            <mxRectangle width="130" height="376" as="alternateBounds" />
          </mxGeometry>
        </mxCell>
        <mxCell id="GCNe0r2AlvjnZA9oPG5_-22" value="GWPS" style="rounded=0;whiteSpace=wrap;html=1;" vertex="1" parent="GCNe0r2AlvjnZA9oPG5_-21">
          <mxGeometry x="20" y="11.5" width="90" height="29" as="geometry" />
        </mxCell>
        <mxCell id="GCNe0r2AlvjnZA9oPG5_-23" value="LIINCS CRISPR" style="rounded=0;whiteSpace=wrap;html=1;" vertex="1" parent="GCNe0r2AlvjnZA9oPG5_-21">
          <mxGeometry x="20" y="51.5" width="90" height="29" as="geometry" />
        </mxCell>
        <mxCell id="GCNe0r2AlvjnZA9oPG5_-24" value="LINCS OE" style="rounded=0;whiteSpace=wrap;html=1;" vertex="1" parent="GCNe0r2AlvjnZA9oPG5_-21">
          <mxGeometry x="20" y="91.5" width="90" height="29" as="geometry" />
        </mxCell>
        <mxCell id="GCNe0r2AlvjnZA9oPG5_-25" value="LINCS shRNA" style="rounded=0;whiteSpace=wrap;html=1;" vertex="1" parent="GCNe0r2AlvjnZA9oPG5_-21">
          <mxGeometry x="20" y="131.5" width="90" height="29" as="geometry" />
        </mxCell>
        <mxCell id="GCNe0r2AlvjnZA9oPG5_-26" value="mb_linpaths" style="rounded=0;whiteSpace=wrap;html=1;" vertex="1" parent="GCNe0r2AlvjnZA9oPG5_-21">
          <mxGeometry x="20" y="171.5" width="90" height="29" as="geometry" />
        </mxCell>
        <mxCell id="GCNe0r2AlvjnZA9oPG5_-27" value="mb_network" style="rounded=0;whiteSpace=wrap;html=1;" vertex="1" parent="GCNe0r2AlvjnZA9oPG5_-21">
          <mxGeometry x="20" y="211.5" width="90" height="29" as="geometry" />
        </mxCell>
        <mxCell id="GCNe0r2AlvjnZA9oPG5_-28" value="mb_regulons" style="rounded=0;whiteSpace=wrap;html=1;" vertex="1" parent="GCNe0r2AlvjnZA9oPG5_-21">
          <mxGeometry x="20" y="251.5" width="90" height="29" as="geometry" />
        </mxCell>
        <mxCell id="GCNe0r2AlvjnZA9oPG5_-29" value="omni network" style="rounded=0;whiteSpace=wrap;html=1;" vertex="1" parent="GCNe0r2AlvjnZA9oPG5_-21">
          <mxGeometry x="20" y="290.5" width="90" height="29" as="geometry" />
        </mxCell>
        <mxCell id="GCNe0r2AlvjnZA9oPG5_-30" value="omni regulons" style="rounded=0;whiteSpace=wrap;html=1;" vertex="1" parent="GCNe0r2AlvjnZA9oPG5_-21">
          <mxGeometry x="20" y="330.5" width="90" height="29" as="geometry" />
        </mxCell>
        <mxCell id="GCNe0r2AlvjnZA9oPG5_-31" value="" style="swimlane;swimlaneHead=0;swimlaneBody=0;connectable=0;fillColor=none;startSize=0;collapsible=0;recursiveResize=0;expand=0;fontStyle=1;" vertex="1" parent="3nuBFxr9cyL0pnOWT2aG-23">
          <mxGeometry x="131" width="130" height="376" as="geometry">
            <mxRectangle width="130" height="376" as="alternateBounds" />
          </mxGeometry>
        </mxCell>
        <mxCell id="GCNe0r2AlvjnZA9oPG5_-32" value="GWPS" style="rounded=0;whiteSpace=wrap;html=1;" vertex="1" parent="GCNe0r2AlvjnZA9oPG5_-31">
          <mxGeometry x="20" y="11.5" width="90" height="29" as="geometry" />
        </mxCell>
        <mxCell id="GCNe0r2AlvjnZA9oPG5_-33" value="LIINCS CRISPR" style="rounded=0;whiteSpace=wrap;html=1;" vertex="1" parent="GCNe0r2AlvjnZA9oPG5_-31">
          <mxGeometry x="20" y="51.5" width="90" height="29" as="geometry" />
        </mxCell>
        <mxCell id="GCNe0r2AlvjnZA9oPG5_-34" value="LINCS OE" style="rounded=0;whiteSpace=wrap;html=1;" vertex="1" parent="GCNe0r2AlvjnZA9oPG5_-31">
          <mxGeometry x="20" y="91.5" width="90" height="29" as="geometry" />
        </mxCell>
        <mxCell id="GCNe0r2AlvjnZA9oPG5_-35" value="LINCS shRNA" style="rounded=0;whiteSpace=wrap;html=1;" vertex="1" parent="GCNe0r2AlvjnZA9oPG5_-31">
          <mxGeometry x="20" y="131.5" width="90" height="29" as="geometry" />
        </mxCell>
        <mxCell id="GCNe0r2AlvjnZA9oPG5_-36" value="mb_linpaths" style="rounded=0;whiteSpace=wrap;html=1;" vertex="1" parent="GCNe0r2AlvjnZA9oPG5_-31">
          <mxGeometry x="20" y="171.5" width="90" height="29" as="geometry" />
        </mxCell>
        <mxCell id="GCNe0r2AlvjnZA9oPG5_-37" value="mb_network" style="rounded=0;whiteSpace=wrap;html=1;" vertex="1" parent="GCNe0r2AlvjnZA9oPG5_-31">
          <mxGeometry x="20" y="211.5" width="90" height="29" as="geometry" />
        </mxCell>
        <mxCell id="GCNe0r2AlvjnZA9oPG5_-38" value="mb_regulons" style="rounded=0;whiteSpace=wrap;html=1;" vertex="1" parent="GCNe0r2AlvjnZA9oPG5_-31">
          <mxGeometry x="20" y="251.5" width="90" height="29" as="geometry" />
        </mxCell>
        <mxCell id="GCNe0r2AlvjnZA9oPG5_-39" value="omni network" style="rounded=0;whiteSpace=wrap;html=1;" vertex="1" parent="GCNe0r2AlvjnZA9oPG5_-31">
          <mxGeometry x="20" y="290.5" width="90" height="29" as="geometry" />
        </mxCell>
        <mxCell id="GCNe0r2AlvjnZA9oPG5_-40" value="omni regulons" style="rounded=0;whiteSpace=wrap;html=1;" vertex="1" parent="GCNe0r2AlvjnZA9oPG5_-31">
          <mxGeometry x="20" y="330.5" width="90" height="29" as="geometry" />
        </mxCell>
        <mxCell id="GCNe0r2AlvjnZA9oPG5_-45" value="" style="swimlane;swimlaneHead=0;swimlaneBody=0;connectable=0;fillColor=none;startSize=0;collapsible=0;recursiveResize=0;expand=0;fontStyle=1;" vertex="1" parent="3nuBFxr9cyL0pnOWT2aG-23">
          <mxGeometry x="261" width="130" height="376" as="geometry">
            <mxRectangle width="130" height="376" as="alternateBounds" />
          </mxGeometry>
        </mxCell>
        <mxCell id="GCNe0r2AlvjnZA9oPG5_-46" value="GWPS" style="rounded=0;whiteSpace=wrap;html=1;fillColor=#d5e8d4;strokeColor=#82b366;" vertex="1" parent="GCNe0r2AlvjnZA9oPG5_-45">
          <mxGeometry x="20" y="11.5" width="90" height="29" as="geometry" />
        </mxCell>
        <mxCell id="GCNe0r2AlvjnZA9oPG5_-47" value="LIINCS CRISPR" style="rounded=0;whiteSpace=wrap;html=1;" vertex="1" parent="GCNe0r2AlvjnZA9oPG5_-45">
          <mxGeometry x="20" y="51.5" width="90" height="29" as="geometry" />
        </mxCell>
        <mxCell id="GCNe0r2AlvjnZA9oPG5_-48" value="LINCS OE" style="rounded=0;whiteSpace=wrap;html=1;" vertex="1" parent="GCNe0r2AlvjnZA9oPG5_-45">
          <mxGeometry x="20" y="91.5" width="90" height="29" as="geometry" />
        </mxCell>
        <mxCell id="GCNe0r2AlvjnZA9oPG5_-49" value="LINCS shRNA" style="rounded=0;whiteSpace=wrap;html=1;" vertex="1" parent="GCNe0r2AlvjnZA9oPG5_-45">
          <mxGeometry x="20" y="131.5" width="90" height="29" as="geometry" />
        </mxCell>
        <mxCell id="GCNe0r2AlvjnZA9oPG5_-50" value="mb_linpaths" style="rounded=0;whiteSpace=wrap;html=1;" vertex="1" parent="GCNe0r2AlvjnZA9oPG5_-45">
          <mxGeometry x="20" y="171.5" width="90" height="29" as="geometry" />
        </mxCell>
        <mxCell id="GCNe0r2AlvjnZA9oPG5_-51" value="mb_network" style="rounded=0;whiteSpace=wrap;html=1;" vertex="1" parent="GCNe0r2AlvjnZA9oPG5_-45">
          <mxGeometry x="20" y="211.5" width="90" height="29" as="geometry" />
        </mxCell>
        <mxCell id="GCNe0r2AlvjnZA9oPG5_-52" value="mb_regulons" style="rounded=0;whiteSpace=wrap;html=1;" vertex="1" parent="GCNe0r2AlvjnZA9oPG5_-45">
          <mxGeometry x="20" y="251.5" width="90" height="29" as="geometry" />
        </mxCell>
        <mxCell id="GCNe0r2AlvjnZA9oPG5_-53" value="omni network" style="rounded=0;whiteSpace=wrap;html=1;" vertex="1" parent="GCNe0r2AlvjnZA9oPG5_-45">
          <mxGeometry x="20" y="290.5" width="90" height="29" as="geometry" />
        </mxCell>
        <mxCell id="GCNe0r2AlvjnZA9oPG5_-54" value="omni regulons" style="rounded=0;whiteSpace=wrap;html=1;" vertex="1" parent="GCNe0r2AlvjnZA9oPG5_-45">
          <mxGeometry x="20" y="330.5" width="90" height="29" as="geometry" />
        </mxCell>
        <mxCell id="GCNe0r2AlvjnZA9oPG5_-55" value="" style="endArrow=none;html=1;rounded=0;" edge="1" parent="1">
          <mxGeometry width="50" height="50" relative="1" as="geometry">
            <mxPoint x="530" y="560.7110934787327" as="sourcePoint" />
            <mxPoint x="530" y="80" as="targetPoint" />
          </mxGeometry>
        </mxCell>
        <mxCell id="GCNe0r2AlvjnZA9oPG5_-57" value="Full runs:Â Mode: TF activity assessment;Â Algos: CMap, CBDD CR, CBDD network, enrichment" style="shape=table;childLayout=tableLayout;startSize=20;collapsible=0;recursiveResize=0;expand=0;fillColor=none;fontStyle=1" vertex="1" parent="1">
          <mxGeometry x="1067" y="60" width="820" height="500" as="geometry" />
        </mxCell>
        <mxCell id="GCNe0r2AlvjnZA9oPG5_-58" value="Query" style="shape=tableRow;horizontal=0;swimlaneHead=0;swimlaneBody=0;top=0;left=0;bottom=0;right=0;fillColor=none;points=[[0,0.5],[1,0.5]];portConstraint=eastwest;startSize=30;collapsible=0;recursiveResize=0;expand=0;fontStyle=1;" vertex="1" parent="GCNe0r2AlvjnZA9oPG5_-57">
          <mxGeometry y="20" width="820" height="104" as="geometry" />
        </mxCell>
        <mxCell id="GCNe0r2AlvjnZA9oPG5_-59" value="all regulators" style="swimlane;swimlaneHead=0;swimlaneBody=0;connectable=0;fillColor=none;startSize=40;collapsible=0;recursiveResize=0;expand=0;fontStyle=1;" vertex="1" parent="GCNe0r2AlvjnZA9oPG5_-58">
          <mxGeometry x="30" width="127" height="104" as="geometry">
            <mxRectangle width="127" height="104" as="alternateBounds" />
          </mxGeometry>
        </mxCell>
        <mxCell id="GCNe0r2AlvjnZA9oPG5_-61" value="all regulators" style="swimlane;swimlaneHead=0;swimlaneBody=0;connectable=0;fillColor=none;startSize=40;collapsible=0;recursiveResize=0;expand=0;fontStyle=1;" vertex="1" parent="GCNe0r2AlvjnZA9oPG5_-58">
          <mxGeometry x="157" width="127" height="104" as="geometry">
            <mxRectangle width="127" height="104" as="alternateBounds" />
          </mxGeometry>
        </mxCell>
        <mxCell id="GCNe0r2AlvjnZA9oPG5_-63" value="" style="swimlane;swimlaneHead=0;swimlaneBody=0;connectable=0;fillColor=none;startSize=40;collapsible=0;recursiveResize=0;expand=0;fontStyle=1;" vertex="1" parent="GCNe0r2AlvjnZA9oPG5_-58">
          <mxGeometry x="284" width="536" height="104" as="geometry">
            <mxRectangle width="536" height="104" as="alternateBounds" />
          </mxGeometry>
        </mxCell>
        <mxCell id="GCNe0r2AlvjnZA9oPG5_-68" value="all regulators" style="swimlane;swimlaneHead=0;swimlaneBody=0;connectable=0;fillColor=none;startSize=40;collapsible=0;recursiveResize=0;expand=0;fontStyle=1;" vertex="1" parent="GCNe0r2AlvjnZA9oPG5_-63">
          <mxGeometry x="399" width="130" height="104" as="geometry">
            <mxRectangle width="130" height="104" as="alternateBounds" />
          </mxGeometry>
        </mxCell>
        <mxCell id="GCNe0r2AlvjnZA9oPG5_-69" value="GWPS" style="rounded=0;whiteSpace=wrap;html=1;" vertex="1" parent="GCNe0r2AlvjnZA9oPG5_-68">
          <mxGeometry x="20" y="50" width="90" height="40" as="geometry" />
        </mxCell>
        <mxCell id="GCNe0r2AlvjnZA9oPG5_-232" value="all regulators" style="swimlane;swimlaneHead=0;swimlaneBody=0;connectable=0;fillColor=none;startSize=40;collapsible=0;recursiveResize=0;expand=0;fontStyle=1;" vertex="1" parent="GCNe0r2AlvjnZA9oPG5_-63">
          <mxGeometry width="130" height="104" as="geometry">
            <mxRectangle width="138" height="104" as="alternateBounds" />
          </mxGeometry>
        </mxCell>
        <mxCell id="GCNe0r2AlvjnZA9oPG5_-189" value="LINCS OE" style="rounded=0;whiteSpace=wrap;html=1;fillColor=#f8cecc;strokeColor=#b85450;" vertex="1" parent="GCNe0r2AlvjnZA9oPG5_-232">
          <mxGeometry x="20" y="50" width="90" height="40" as="geometry" />
        </mxCell>
        <mxCell id="GCNe0r2AlvjnZA9oPG5_-241" value="all regulators" style="swimlane;swimlaneHead=0;swimlaneBody=0;connectable=0;fillColor=none;startSize=40;collapsible=0;recursiveResize=0;expand=0;fontStyle=1;" vertex="1" parent="GCNe0r2AlvjnZA9oPG5_-63">
          <mxGeometry x="130" width="130" height="104" as="geometry">
            <mxRectangle width="130" height="104" as="alternateBounds" />
          </mxGeometry>
        </mxCell>
        <mxCell id="GCNe0r2AlvjnZA9oPG5_-244" value="all regulators" style="swimlane;swimlaneHead=0;swimlaneBody=0;connectable=0;fillColor=none;startSize=40;collapsible=0;recursiveResize=0;expand=0;fontStyle=1;" vertex="1" parent="GCNe0r2AlvjnZA9oPG5_-63">
          <mxGeometry x="268" width="130" height="104" as="geometry">
            <mxRectangle width="130" height="104" as="alternateBounds" />
          </mxGeometry>
        </mxCell>
        <mxCell id="GCNe0r2AlvjnZA9oPG5_-245" value="LINCS COMPOUNDS" style="rounded=0;whiteSpace=wrap;html=1;fillColor=#f8cecc;strokeColor=#b85450;" vertex="1" parent="GCNe0r2AlvjnZA9oPG5_-244">
          <mxGeometry x="19" y="50" width="90" height="40" as="geometry" />
        </mxCell>
        <mxCell id="GCNe0r2AlvjnZA9oPG5_-71" value="Reference" style="shape=tableRow;horizontal=0;swimlaneHead=0;swimlaneBody=0;top=0;left=0;bottom=0;right=0;fillColor=none;points=[[0,0.5],[1,0.5]];portConstraint=eastwest;startSize=30;collapsible=0;recursiveResize=0;expand=0;fontStyle=1;" vertex="1" parent="GCNe0r2AlvjnZA9oPG5_-57">
          <mxGeometry y="124" width="820" height="376" as="geometry" />
        </mxCell>
        <mxCell id="GCNe0r2AlvjnZA9oPG5_-72" value="" style="swimlane;swimlaneHead=0;swimlaneBody=0;connectable=0;fillColor=none;startSize=0;collapsible=0;recursiveResize=0;expand=0;fontStyle=1;" vertex="1" parent="GCNe0r2AlvjnZA9oPG5_-71">
          <mxGeometry x="30" width="127" height="376" as="geometry">
            <mxRectangle width="127" height="376" as="alternateBounds" />
          </mxGeometry>
        </mxCell>
        <mxCell id="GCNe0r2AlvjnZA9oPG5_-235" value="PertOrg" style="rounded=0;whiteSpace=wrap;html=1;fillColor=#f8cecc;strokeColor=#b85450;fontStyle=5" vertex="1" parent="GCNe0r2AlvjnZA9oPG5_-72">
          <mxGeometry x="13" y="216" width="90" height="29" as="geometry" />
        </mxCell>
        <mxCell id="GCNe0r2AlvjnZA9oPG5_-256" value="LINCS COMPOUNDS" style="rounded=0;whiteSpace=wrap;html=1;fillColor=#f8cecc;strokeColor=#b85450;" vertex="1" parent="GCNe0r2AlvjnZA9oPG5_-72">
          <mxGeometry x="13" y="168" width="90" height="40" as="geometry" />
        </mxCell>
        <mxCell id="GCNe0r2AlvjnZA9oPG5_-257" value="&lt;span style=&quot;text-align: left;&quot;&gt;Alex will run ref network things little by little&lt;/span&gt;" style="rounded=0;whiteSpace=wrap;html=1;" vertex="1" parent="GCNe0r2AlvjnZA9oPG5_-72">
          <mxGeometry x="37" y="316" width="723" height="29" as="geometry" />
        </mxCell>
        <mxCell id="GCNe0r2AlvjnZA9oPG5_-82" value="" style="swimlane;swimlaneHead=0;swimlaneBody=0;connectable=0;fillColor=none;startSize=0;collapsible=0;recursiveResize=0;expand=0;fontStyle=1;" vertex="1" parent="GCNe0r2AlvjnZA9oPG5_-71">
          <mxGeometry x="157" width="127" height="376" as="geometry">
            <mxRectangle width="127" height="376" as="alternateBounds" />
          </mxGeometry>
        </mxCell>
        <mxCell id="GCNe0r2AlvjnZA9oPG5_-201" value="PertOrg" style="rounded=0;whiteSpace=wrap;html=1;fillColor=#f8cecc;strokeColor=#b85450;" vertex="1" parent="GCNe0r2AlvjnZA9oPG5_-82">
          <mxGeometry x="-112" y="-53.5" width="90" height="40" as="geometry" />
        </mxCell>
        <mxCell id="GCNe0r2AlvjnZA9oPG5_-202" value="LINCS shRNA" style="rounded=0;whiteSpace=wrap;html=1;fillColor=#f8cecc;strokeColor=#b85450;" vertex="1" parent="GCNe0r2AlvjnZA9oPG5_-82">
          <mxGeometry x="26" y="-53.5" width="90" height="40" as="geometry" />
        </mxCell>
        <mxCell id="GCNe0r2AlvjnZA9oPG5_-203" value="GWPS" style="rounded=0;whiteSpace=wrap;html=1;fillColor=#f8cecc;strokeColor=#b85450;" vertex="1" parent="GCNe0r2AlvjnZA9oPG5_-82">
          <mxGeometry x="-112" y="11.5" width="90" height="29" as="geometry" />
        </mxCell>
        <mxCell id="GCNe0r2AlvjnZA9oPG5_-204" value="LIINCS CRISPR" style="rounded=0;whiteSpace=wrap;html=1;fillColor=#f8cecc;strokeColor=#b85450;fontStyle=5" vertex="1" parent="GCNe0r2AlvjnZA9oPG5_-82">
          <mxGeometry x="-112" y="51.5" width="90" height="29" as="geometry" />
        </mxCell>
        <mxCell id="GCNe0r2AlvjnZA9oPG5_-205" value="LINCS OE" style="rounded=0;whiteSpace=wrap;html=1;fillColor=#f8cecc;strokeColor=#b85450;" vertex="1" parent="GCNe0r2AlvjnZA9oPG5_-82">
          <mxGeometry x="-112" y="91.5" width="90" height="29" as="geometry" />
        </mxCell>
        <mxCell id="GCNe0r2AlvjnZA9oPG5_-206" value="LINCS shRNA" style="rounded=0;whiteSpace=wrap;html=1;fillColor=#f8cecc;strokeColor=#b85450;fontStyle=5" vertex="1" parent="GCNe0r2AlvjnZA9oPG5_-82">
          <mxGeometry x="-112" y="131.5" width="90" height="29" as="geometry" />
        </mxCell>
        <mxCell id="GCNe0r2AlvjnZA9oPG5_-207" value="GWPS" style="rounded=0;whiteSpace=wrap;html=1;fillColor=#f8cecc;strokeColor=#b85450;fontStyle=5" vertex="1" parent="GCNe0r2AlvjnZA9oPG5_-82">
          <mxGeometry x="26" y="12" width="90" height="29" as="geometry" />
        </mxCell>
        <mxCell id="GCNe0r2AlvjnZA9oPG5_-208" value="LIINCS CRISPR" style="rounded=0;whiteSpace=wrap;html=1;fillColor=#f8cecc;strokeColor=#b85450;fontStyle=5" vertex="1" parent="GCNe0r2AlvjnZA9oPG5_-82">
          <mxGeometry x="26" y="52" width="90" height="29" as="geometry" />
        </mxCell>
        <mxCell id="GCNe0r2AlvjnZA9oPG5_-209" value="LINCS OE" style="rounded=0;whiteSpace=wrap;html=1;fillColor=#f8cecc;strokeColor=#b85450;fontStyle=5" vertex="1" parent="GCNe0r2AlvjnZA9oPG5_-82">
          <mxGeometry x="26" y="92" width="90" height="29" as="geometry" />
        </mxCell>
        <mxCell id="GCNe0r2AlvjnZA9oPG5_-210" value="LINCS shRNA" style="rounded=0;whiteSpace=wrap;html=1;fillColor=#f8cecc;strokeColor=#b85450;fontStyle=5" vertex="1" parent="GCNe0r2AlvjnZA9oPG5_-82">
          <mxGeometry x="26" y="132" width="90" height="29" as="geometry" />
        </mxCell>
        <mxCell id="GCNe0r2AlvjnZA9oPG5_-211" value="error" style="text;html=1;align=center;verticalAlign=middle;whiteSpace=wrap;rounded=0;fontStyle=2" vertex="1" parent="GCNe0r2AlvjnZA9oPG5_-82">
          <mxGeometry x="-97" y="99.5" width="60" height="30" as="geometry" />
        </mxCell>
        <mxCell id="GCNe0r2AlvjnZA9oPG5_-255" value="LINCS COMPOUNDS" style="rounded=0;whiteSpace=wrap;html=1;fillColor=#f8cecc;strokeColor=#b85450;" vertex="1" parent="GCNe0r2AlvjnZA9oPG5_-82">
          <mxGeometry x="26" y="168" width="90" height="40" as="geometry" />
        </mxCell>
        <mxCell id="GCNe0r2AlvjnZA9oPG5_-92" value="" style="swimlane;swimlaneHead=0;swimlaneBody=0;connectable=0;fillColor=none;startSize=0;collapsible=0;recursiveResize=0;expand=0;fontStyle=1;" vertex="1" parent="GCNe0r2AlvjnZA9oPG5_-71">
          <mxGeometry x="284" width="536" height="376" as="geometry">
            <mxRectangle width="536" height="376" as="alternateBounds" />
          </mxGeometry>
        </mxCell>
        <mxCell id="GCNe0r2AlvjnZA9oPG5_-113" value="" style="swimlane;swimlaneHead=0;swimlaneBody=0;connectable=0;fillColor=none;startSize=0;collapsible=0;recursiveResize=0;expand=0;fontStyle=1;" vertex="1" parent="GCNe0r2AlvjnZA9oPG5_-92">
          <mxGeometry x="400" width="130" height="376" as="geometry">
            <mxRectangle width="130" height="376" as="alternateBounds" />
          </mxGeometry>
        </mxCell>
        <mxCell id="GCNe0r2AlvjnZA9oPG5_-114" value="GWPS" style="rounded=0;whiteSpace=wrap;html=1;fillColor=#f8cecc;strokeColor=#b85450;fontStyle=5" vertex="1" parent="GCNe0r2AlvjnZA9oPG5_-113">
          <mxGeometry x="20" y="11.5" width="90" height="29" as="geometry" />
        </mxCell>
        <mxCell id="GCNe0r2AlvjnZA9oPG5_-115" value="LIINCS CRISPR" style="rounded=0;whiteSpace=wrap;html=1;" vertex="1" parent="GCNe0r2AlvjnZA9oPG5_-113">
          <mxGeometry x="20" y="51.5" width="90" height="29" as="geometry" />
        </mxCell>
        <mxCell id="GCNe0r2AlvjnZA9oPG5_-116" value="LINCS OE" style="rounded=0;whiteSpace=wrap;html=1;" vertex="1" parent="GCNe0r2AlvjnZA9oPG5_-113">
          <mxGeometry x="20" y="91.5" width="90" height="29" as="geometry" />
        </mxCell>
        <mxCell id="GCNe0r2AlvjnZA9oPG5_-117" value="LINCS shRNA" style="rounded=0;whiteSpace=wrap;html=1;" vertex="1" parent="GCNe0r2AlvjnZA9oPG5_-113">
          <mxGeometry x="20" y="131.5" width="90" height="29" as="geometry" />
        </mxCell>
        <mxCell id="GCNe0r2AlvjnZA9oPG5_-118" value="PertOrg" style="rounded=0;whiteSpace=wrap;html=1;fillColor=#f8cecc;strokeColor=#b85450;" vertex="1" parent="GCNe0r2AlvjnZA9oPG5_-113">
          <mxGeometry x="20" y="171.5" width="90" height="29" as="geometry" />
        </mxCell>
        <mxCell id="GCNe0r2AlvjnZA9oPG5_-214" value="error" style="text;html=1;align=center;verticalAlign=middle;whiteSpace=wrap;rounded=0;fontStyle=2" vertex="1" parent="GCNe0r2AlvjnZA9oPG5_-113">
          <mxGeometry x="35" y="180.5" width="60" height="30" as="geometry" />
        </mxCell>
        <mxCell id="GCNe0r2AlvjnZA9oPG5_-253" value="LINCS COMPOUNDS" style="rounded=0;whiteSpace=wrap;html=1;fillColor=#f8cecc;strokeColor=#b85450;" vertex="1" parent="GCNe0r2AlvjnZA9oPG5_-113">
          <mxGeometry x="20" y="211.5" width="90" height="40" as="geometry" />
        </mxCell>
        <mxCell id="GCNe0r2AlvjnZA9oPG5_-190" value="GWPS" style="rounded=0;whiteSpace=wrap;html=1;fillColor=#fff2cc;strokeColor=#d6b656;" vertex="1" parent="GCNe0r2AlvjnZA9oPG5_-92">
          <mxGeometry x="20" y="11.5" width="90" height="29" as="geometry" />
        </mxCell>
        <mxCell id="GCNe0r2AlvjnZA9oPG5_-191" value="LINCS shRNA" style="rounded=0;whiteSpace=wrap;html=1;fillColor=#fff2cc;strokeColor=#d6b656;" vertex="1" parent="GCNe0r2AlvjnZA9oPG5_-92">
          <mxGeometry x="20" y="132" width="90" height="29" as="geometry" />
        </mxCell>
        <mxCell id="GCNe0r2AlvjnZA9oPG5_-192" value="LIINCS CRISPR" style="rounded=0;whiteSpace=wrap;html=1;fillColor=#f8cecc;strokeColor=#b85450;fontStyle=5" vertex="1" parent="GCNe0r2AlvjnZA9oPG5_-92">
          <mxGeometry x="20" y="52" width="90" height="29" as="geometry" />
        </mxCell>
        <mxCell id="GCNe0r2AlvjnZA9oPG5_-193" value="&lt;b&gt;&lt;u&gt;LINCS OE&lt;/u&gt;&lt;/b&gt;" style="rounded=0;whiteSpace=wrap;html=1;fillColor=#f8cecc;strokeColor=#b85450;" vertex="1" parent="GCNe0r2AlvjnZA9oPG5_-92">
          <mxGeometry x="20" y="92" width="90" height="29" as="geometry" />
        </mxCell>
        <mxCell id="GCNe0r2AlvjnZA9oPG5_-194" value="LINCS CRISPR" style="rounded=0;whiteSpace=wrap;html=1;fillColor=#f8cecc;strokeColor=#b85450;" vertex="1" parent="GCNe0r2AlvjnZA9oPG5_-92">
          <mxGeometry x="151.5" y="-53.5" width="90" height="40" as="geometry" />
        </mxCell>
        <mxCell id="GCNe0r2AlvjnZA9oPG5_-195" value="GWPS" style="rounded=0;whiteSpace=wrap;html=1;fillColor=#f8cecc;strokeColor=#b85450;fontStyle=5" vertex="1" parent="GCNe0r2AlvjnZA9oPG5_-92">
          <mxGeometry x="152.5" y="12" width="90" height="29" as="geometry" />
        </mxCell>
        <mxCell id="GCNe0r2AlvjnZA9oPG5_-196" value="LIINCS CRISPR" style="rounded=0;whiteSpace=wrap;html=1;fillColor=#f8cecc;strokeColor=#b85450;fontStyle=5" vertex="1" parent="GCNe0r2AlvjnZA9oPG5_-92">
          <mxGeometry x="152.5" y="52" width="90" height="29" as="geometry" />
        </mxCell>
        <mxCell id="GCNe0r2AlvjnZA9oPG5_-197" value="LINCS OE" style="rounded=0;whiteSpace=wrap;html=1;fillColor=#f8cecc;strokeColor=#b85450;fontStyle=5" vertex="1" parent="GCNe0r2AlvjnZA9oPG5_-92">
          <mxGeometry x="152.5" y="92" width="90" height="29" as="geometry" />
        </mxCell>
        <mxCell id="GCNe0r2AlvjnZA9oPG5_-198" value="LINCS shRNA" style="rounded=0;whiteSpace=wrap;html=1;fillColor=#f8cecc;strokeColor=#b85450;fontStyle=5" vertex="1" parent="GCNe0r2AlvjnZA9oPG5_-92">
          <mxGeometry x="152.5" y="132" width="90" height="29" as="geometry" />
        </mxCell>
        <mxCell id="GCNe0r2AlvjnZA9oPG5_-200" value="" style="endArrow=none;html=1;rounded=0;" edge="1" parent="GCNe0r2AlvjnZA9oPG5_-92">
          <mxGeometry width="50" height="50" relative="1" as="geometry">
            <mxPoint x="128" y="376.0010934787326" as="sourcePoint" />
            <mxPoint x="128" y="-104.71000000000004" as="targetPoint" />
          </mxGeometry>
        </mxCell>
        <mxCell id="GCNe0r2AlvjnZA9oPG5_-199" value="" style="endArrow=none;html=1;rounded=0;" edge="1" parent="GCNe0r2AlvjnZA9oPG5_-92">
          <mxGeometry width="50" height="50" relative="1" as="geometry">
            <mxPoint x="261" y="376.00109347873257" as="sourcePoint" />
            <mxPoint x="261" y="-104.71000000000006" as="targetPoint" />
          </mxGeometry>
        </mxCell>
        <mxCell id="GCNe0r2AlvjnZA9oPG5_-243" value="" style="endArrow=none;html=1;rounded=0;" edge="1" parent="GCNe0r2AlvjnZA9oPG5_-92">
          <mxGeometry width="50" height="50" relative="1" as="geometry">
            <mxPoint x="400" y="376.0010934787326" as="sourcePoint" />
            <mxPoint x="400" y="-104.71000000000006" as="targetPoint" />
          </mxGeometry>
        </mxCell>
        <mxCell id="GCNe0r2AlvjnZA9oPG5_-246" value="GWPS" style="rounded=0;whiteSpace=wrap;html=1;fillColor=#f8cecc;strokeColor=#b85450;fontStyle=0" vertex="1" parent="GCNe0r2AlvjnZA9oPG5_-92">
          <mxGeometry x="290" y="11.5" width="90" height="29" as="geometry" />
        </mxCell>
        <mxCell id="GCNe0r2AlvjnZA9oPG5_-247" value="LIINCS CRISPR" style="rounded=0;whiteSpace=wrap;html=1;fillColor=#f8cecc;strokeColor=#b85450;fontStyle=0" vertex="1" parent="GCNe0r2AlvjnZA9oPG5_-92">
          <mxGeometry x="290" y="51.5" width="90" height="29" as="geometry" />
        </mxCell>
        <mxCell id="GCNe0r2AlvjnZA9oPG5_-248" value="LINCS OE" style="rounded=0;whiteSpace=wrap;html=1;fillColor=#f8cecc;strokeColor=#b85450;fontStyle=0" vertex="1" parent="GCNe0r2AlvjnZA9oPG5_-92">
          <mxGeometry x="290" y="91.5" width="90" height="29" as="geometry" />
        </mxCell>
        <mxCell id="GCNe0r2AlvjnZA9oPG5_-249" value="LINCS shRNA" style="rounded=0;whiteSpace=wrap;html=1;fillColor=#f8cecc;strokeColor=#b85450;fontStyle=0" vertex="1" parent="GCNe0r2AlvjnZA9oPG5_-92">
          <mxGeometry x="290" y="131.5" width="90" height="29" as="geometry" />
        </mxCell>
        <mxCell id="GCNe0r2AlvjnZA9oPG5_-251" value="LINCS COMPOUNDS" style="rounded=0;whiteSpace=wrap;html=1;fillColor=#f8cecc;strokeColor=#b85450;" vertex="1" parent="GCNe0r2AlvjnZA9oPG5_-92">
          <mxGeometry x="290" y="168" width="90" height="40" as="geometry" />
        </mxCell>
        <mxCell id="GCNe0r2AlvjnZA9oPG5_-252" value="LINCS COMPOUNDS" style="rounded=0;whiteSpace=wrap;html=1;fillColor=#f8cecc;strokeColor=#b85450;" vertex="1" parent="GCNe0r2AlvjnZA9oPG5_-92">
          <mxGeometry x="152.5" y="168" width="90" height="40" as="geometry" />
        </mxCell>
        <mxCell id="GCNe0r2AlvjnZA9oPG5_-254" value="LINCS COMPOUNDS" style="rounded=0;whiteSpace=wrap;html=1;fillColor=#f8cecc;strokeColor=#b85450;" vertex="1" parent="GCNe0r2AlvjnZA9oPG5_-92">
          <mxGeometry x="20" y="168" width="90" height="40" as="geometry" />
        </mxCell>
        <mxCell id="GCNe0r2AlvjnZA9oPG5_-213" value="error" style="text;html=1;align=center;verticalAlign=middle;whiteSpace=wrap;rounded=0;fontStyle=2" vertex="1" parent="1">
          <mxGeometry x="1126" y="204.5" width="60" height="30" as="geometry" />
        </mxCell>
        <mxCell id="GCNe0r2AlvjnZA9oPG5_-219" value="Legend" style="swimlane;whiteSpace=wrap;html=1;" vertex="1" parent="1">
          <mxGeometry x="-50" y="330" width="140" height="230" as="geometry" />
        </mxCell>
        <mxCell id="GCNe0r2AlvjnZA9oPG5_-215" value="Currently running" style="rounded=0;whiteSpace=wrap;html=1;fillColor=#fff2cc;strokeColor=#d6b656;" vertex="1" parent="GCNe0r2AlvjnZA9oPG5_-219">
          <mxGeometry x="10" y="110" width="120" height="29" as="geometry" />
        </mxCell>
        <mxCell id="GCNe0r2AlvjnZA9oPG5_-216" value="Not runned" style="rounded=0;whiteSpace=wrap;html=1;fillColor=#f8cecc;strokeColor=#b85450;" vertex="1" parent="GCNe0r2AlvjnZA9oPG5_-219">
          <mxGeometry x="10" y="150" width="120" height="29" as="geometry" />
        </mxCell>
        <mxCell id="GCNe0r2AlvjnZA9oPG5_-217" value="Script done" style="rounded=0;whiteSpace=wrap;html=1;fillColor=#f8cecc;strokeColor=#b85450;fontStyle=5" vertex="1" parent="GCNe0r2AlvjnZA9oPG5_-219">
          <mxGeometry x="10" y="190" width="120" height="29" as="geometry" />
        </mxCell>
        <mxCell id="GCNe0r2AlvjnZA9oPG5_-218" value="Runned!" style="rounded=0;whiteSpace=wrap;html=1;" vertex="1" parent="GCNe0r2AlvjnZA9oPG5_-219">
          <mxGeometry x="10" y="70" width="120" height="29" as="geometry" />
        </mxCell>
        <mxCell id="GCNe0r2AlvjnZA9oPG5_-223" value="Runned &amp;amp; verified" style="rounded=0;whiteSpace=wrap;html=1;fillColor=#d5e8d4;strokeColor=#82b366;" vertex="1" parent="GCNe0r2AlvjnZA9oPG5_-219">
          <mxGeometry x="10" y="30" width="120" height="29" as="geometry" />
        </mxCell>
        <mxCell id="GCNe0r2AlvjnZA9oPG5_-222" value="The code for this had an error:&lt;div&gt;&lt;code spellcheck=&quot;false&quot; class=&quot;skipProofing&quot;&gt;resources&amp;nbsp; &amp;lt;- datasets[2,]. I corrected for&amp;nbsp;&lt;/code&gt;&lt;code style=&quot;background-color: initial;&quot; spellcheck=&quot;false&quot; class=&quot;skipProofing&quot;&gt;resources&amp;nbsp; &amp;lt;- datasets[9,]&lt;/code&gt;&lt;span style=&quot;background-color: initial;&quot;&gt; .&lt;/span&gt;&lt;/div&gt;" style="text;html=1;align=center;verticalAlign=middle;whiteSpace=wrap;rounded=0;fontStyle=2" vertex="1" parent="1">
          <mxGeometry x="830" y="175" width="210" height="70" as="geometry" />
        </mxCell>
        <mxCell id="GCNe0r2AlvjnZA9oPG5_-221" style="edgeStyle=orthogonalEdgeStyle;rounded=0;orthogonalLoop=1;jettySize=auto;html=1;" edge="1" parent="1" source="GCNe0r2AlvjnZA9oPG5_-46" target="GCNe0r2AlvjnZA9oPG5_-222">
          <mxGeometry relative="1" as="geometry">
            <mxPoint x="840" y="210" as="targetPoint" />
          </mxGeometry>
        </mxCell>
        <mxCell id="GCNe0r2AlvjnZA9oPG5_-225" value="&lt;span data-teams=&quot;true&quot;&gt;&lt;i&gt;When query is pertorg&lt;/i&gt;, it fails (&lt;i&gt;Query input doesn&#39;t seem to be a collection of either full signatures or DEG lists&lt;/i&gt;), this happens because when &lt;code&gt;is_signatures()&lt;/code&gt; function is called, &lt;code&gt;all(sapply(input, nrow) &amp;gt;= 5000)&lt;/code&gt;&amp;nbsp;fails, due to some signatures with nrows&amp;lt;5000, e.g.&amp;nbsp;&lt;i&gt;Pertg00166 &lt;/i&gt;to &lt;i&gt;Pertg00172&lt;/i&gt;, the signatures have just around 100 genes in the data frame.&lt;/span&gt;" style="text;html=1;align=center;verticalAlign=middle;whiteSpace=wrap;rounded=0;fontStyle=2" vertex="1" parent="1">
          <mxGeometry x="820" y="310" width="210" height="70" as="geometry" />
        </mxCell>
        <mxCell id="GCNe0r2AlvjnZA9oPG5_-224" style="edgeStyle=orthogonalEdgeStyle;rounded=0;orthogonalLoop=1;jettySize=auto;html=1;exitX=0;exitY=0.5;exitDx=0;exitDy=0;entryX=1;entryY=0.75;entryDx=0;entryDy=0;" edge="1" parent="1" source="GCNe0r2AlvjnZA9oPG5_-203" target="GCNe0r2AlvjnZA9oPG5_-225">
          <mxGeometry relative="1" as="geometry">
            <mxPoint x="1161.0000000000005" y="40" as="targetPoint" />
            <Array as="points">
              <mxPoint x="1050" y="210" />
              <mxPoint x="1050" y="363" />
            </Array>
          </mxGeometry>
        </mxCell>
        <mxCell id="GCNe0r2AlvjnZA9oPG5_-226" style="edgeStyle=orthogonalEdgeStyle;rounded=0;orthogonalLoop=1;jettySize=auto;html=1;exitX=0;exitY=0.5;exitDx=0;exitDy=0;entryX=1;entryY=0.75;entryDx=0;entryDy=0;" edge="1" parent="1" source="GCNe0r2AlvjnZA9oPG5_-205" target="GCNe0r2AlvjnZA9oPG5_-225">
          <mxGeometry relative="1" as="geometry">
            <mxPoint x="1040" y="360" as="targetPoint" />
            <mxPoint x="1126" y="220" as="sourcePoint" />
            <Array as="points">
              <mxPoint x="1050" y="290" />
              <mxPoint x="1050" y="363" />
            </Array>
          </mxGeometry>
        </mxCell>
        <mxCell id="GCNe0r2AlvjnZA9oPG5_-227" value="All this tf runs possible have an error in the report: dataset and resource table, with the wrong dataset/reference defined" style="text;html=1;align=center;verticalAlign=middle;whiteSpace=wrap;rounded=0;fontStyle=2" vertex="1" parent="1">
          <mxGeometry x="330" width="250" height="70" as="geometry" />
        </mxCell>
        <mxCell id="GCNe0r2AlvjnZA9oPG5_-233" value="" style="verticalLabelPosition=bottom;verticalAlign=top;html=1;shape=mxgraph.basic.8_point_star" vertex="1" parent="1">
          <mxGeometry x="884" y="-41" width="150" height="130" as="geometry" />
        </mxCell>
        <mxCell id="GCNe0r2AlvjnZA9oPG5_-236" value="ATENTION&lt;div&gt;&lt;b style=&quot;text-wrap-mode: nowrap;&quot;&gt;&lt;font color=&quot;#ff3300&quot;&gt;gwps_signatures&lt;/font&gt;&lt;/b&gt;&lt;/div&gt;" style="text;html=1;align=center;verticalAlign=middle;whiteSpace=wrap;rounded=0;" vertex="1" parent="1">
          <mxGeometry x="930" y="15" width="60" height="30" as="geometry" />
        </mxCell>
        <mxCell id="GCNe0r2AlvjnZA9oPG5_-240" value="&lt;span data-teams=&quot;true&quot;&gt;Focus on the runs with signature references (LINCs OE/shRNA/GWPS signatures)&lt;br&gt;&lt;/span&gt;" style="text;whiteSpace=wrap;html=1;" vertex="1" parent="1">
          <mxGeometry x="884" y="-70" width="460" height="29" as="geometry" />
        </mxCell>
        <mxCell id="GCNe0r2AlvjnZA9oPG5_-259" value="&lt;span style=&quot;text-align: left;&quot;&gt;error: Only reference collection containing full perturbation signatures works for CMap approaches&lt;/span&gt;" style="text;html=1;align=center;verticalAlign=middle;whiteSpace=wrap;rounded=0;fontStyle=2" vertex="1" parent="1">
          <mxGeometry x="1901" y="336" width="210" height="70" as="geometry" />
        </mxCell>
        <mxCell id="GCNe0r2AlvjnZA9oPG5_-260" style="edgeStyle=orthogonalEdgeStyle;rounded=0;orthogonalLoop=1;jettySize=auto;html=1;entryX=0;entryY=0.5;entryDx=0;entryDy=0;" edge="1" parent="1" source="GCNe0r2AlvjnZA9oPG5_-118" target="GCNe0r2AlvjnZA9oPG5_-259">
          <mxGeometry relative="1" as="geometry" />
        </mxCell>
        <mxCell id="GCNe0r2AlvjnZA9oPG5_-261" value="&lt;span style=&quot;text-align: left;&quot;&gt;This are full runs using signature datasets as reference&lt;/span&gt;" style="text;html=1;align=center;verticalAlign=middle;whiteSpace=wrap;rounded=0;fontStyle=0" vertex="1" parent="1">
          <mxGeometry x="1300" y="35" width="328" height="25" as="geometry" />
        </mxCell>
      </root>
    </mxGraphModel>
  </diagram>
</mxfile>
